# xmcd
#
# Track frame offsets: 
#        150
#        19542
#        34412
#        53137
#        76374
#        93004
#        107480
#        126296
#        143437
#        164732
#        194833
#
# Disc length: 3000 seconds
#
# Revision: 0
# Processed by: cddbd v1.5.2PL0 Copyright (c) Steve Scherf et al.
# Submitted via: ExactAudioCopyFreeDBPlugin 1.0
#
DISCID=8e0bb60b
DTITLE=Noise Pollution - One Decade Down
DYEAR=2008
DGENRE=Blues
TTITLE0=Wait On Time
TTITLE1=Red Haired Woman
TTITLE2=Ain't Drunk
TTITLE3=Free
TTITLE4=Can't Tear It Up Enuff
TTITLE5=Lookin' For A Girl Like You
TTITLE6=Nobody
TTITLE7=Ride With Me
TTITLE8=Guitar Player
TTITLE9=The Sky Is Crying
TTITLE10=Shake Your Hips
EXTD=
EXTT0=
EXTT1=
EXTT2=
EXTT3=
EXTT4=
EXTT5=
EXTT6=
EXTT7=
EXTT8=
EXTT9=
EXTT10=
PLAYORDER=
